<svg width="136" height="64" viewBox="0 0 136 64" fill="none" xmlns="http://www.w3.org/2000/svg">
<path d="M32 58.6666C46.7276 58.6666 58.6667 46.7275 58.6667 31.9999C58.6667 17.2723 46.7276 5.33325 32 5.33325C17.2724 5.33325 5.33333 17.2723 5.33333 31.9999C5.33333 46.7275 17.2724 58.6666 32 58.6666Z" stroke="black" stroke-width="2" stroke-linecap="round" stroke-linejoin="round"/>
<path d="M26.6667 21.3333L42.6667 31.9999L26.6667 42.6666V21.3333Z" stroke="black" stroke-width="2" stroke-linecap="round" stroke-linejoin="round"/>
<path d="M104 58.6666C118.728 58.6666 130.667 46.7275 130.667 31.9999C130.667 17.2723 118.728 5.33325 104 5.33325C89.2724 5.33325 77.3333 17.2723 77.3333 31.9999C77.3333 46.7275 89.2724 58.6666 104 58.6666Z" stroke="black" stroke-width="2" stroke-linecap="round" stroke-linejoin="round"/>
<path d="M93.3333 32L104 42.6667L114.667 32" stroke="black" stroke-width="2" stroke-linecap="round" stroke-linejoin="round"/>
<path d="M104 21.3333V42.6666" stroke="black" stroke-width="2" stroke-linecap="round" stroke-linejoin="round"/>
</svg>
