<svg width="20" height="20" viewBox="0 0 20 20" fill="none" xmlns="http://www.w3.org/2000/svg">
<g clip-path="url(#clip0_1_101)">
<path fill-rule="evenodd" clip-rule="evenodd" d="M8.9412 14.2353C5.64708 14.2353 2.9412 11.6471 2.9412 8.35294C2.9412 5.05882 5.64708 2.35294 8.9412 2.35294C12.2353 2.35294 14.9412 5.05882 14.9412 8.35294C14.9412 11.6471 12.2353 14.2353 8.9412 14.2353ZM15.5294 13.2941C16.5883 11.8824 17.1765 10.2353 17.1765 8.35294C17.1765 3.76471 13.5294 0 8.9412 0C4.35296 0 0.588257 3.76471 0.588257 8.35294C0.588257 12.9412 4.35296 16.7059 8.9412 16.7059C10.8236 16.7059 12.5883 16.1176 13.8824 15.0588L17.4118 18.5882C17.6471 18.8235 18 18.9412 18.2353 18.9412C18.4706 18.9412 18.8236 18.8235 19.0588 18.5882C19.5294 18.1176 19.5294 17.4118 19.0588 16.9412L15.5294 13.2941Z" fill="white"/>
</g>
<defs>
<clipPath id="clip0_1_101">
<rect width="18.8235" height="20" fill="white" transform="translate(0.588257)"/>
</clipPath>
</defs>
</svg>
