<svg width="20" height="21" viewBox="0 0 20 21" fill="none" xmlns="http://www.w3.org/2000/svg">
<path d="M9.25 6.00781C11.7109 6.00781 13.7422 8.03906 13.7422 10.5C13.7422 13 11.7109 14.9922 9.25 14.9922C6.75 14.9922 4.75781 13 4.75781 10.5C4.75781 8.03906 6.75 6.00781 9.25 6.00781ZM9.25 13.4297C10.8516 13.4297 12.1406 12.1406 12.1406 10.5C12.1406 8.89844 10.8516 7.60938 9.25 7.60938C7.60938 7.60938 6.32031 8.89844 6.32031 10.5C6.32031 12.1406 7.64844 13.4297 9.25 13.4297ZM14.9531 5.85156C14.9531 6.4375 14.4844 6.90625 13.8984 6.90625C13.3125 6.90625 12.8438 6.4375 12.8438 5.85156C12.8438 5.26562 13.3125 4.79688 13.8984 4.79688C14.4844 4.79688 14.9531 5.26562 14.9531 5.85156ZM17.9219 6.90625C18 8.35156 18 12.6875 17.9219 14.1328C17.8438 15.5391 17.5312 16.75 16.5156 17.8047C15.5 18.8203 14.25 19.1328 12.8438 19.2109C11.3984 19.2891 7.0625 19.2891 5.61719 19.2109C4.21094 19.1328 3 18.8203 1.94531 17.8047C0.929688 16.75 0.617188 15.5391 0.539062 14.1328C0.460938 12.6875 0.460938 8.35156 0.539062 6.90625C0.617188 5.5 0.929688 4.25 1.94531 3.23438C3 2.21875 4.21094 1.90625 5.61719 1.82812C7.0625 1.75 11.3984 1.75 12.8438 1.82812C14.25 1.90625 15.5 2.21875 16.5156 3.23438C17.5312 4.25 17.8438 5.5 17.9219 6.90625ZM16.0469 15.6562C16.5156 14.5234 16.3984 11.7891 16.3984 10.5C16.3984 9.25 16.5156 6.51562 16.0469 5.34375C15.7344 4.60156 15.1484 3.97656 14.4062 3.70312C13.2344 3.23438 10.5 3.35156 9.25 3.35156C7.96094 3.35156 5.22656 3.23438 4.09375 3.70312C3.3125 4.01562 2.72656 4.60156 2.41406 5.34375C1.94531 6.51562 2.0625 9.25 2.0625 10.5C2.0625 11.7891 1.94531 14.5234 2.41406 15.6562C2.72656 16.4375 3.3125 17.0234 4.09375 17.3359C5.22656 17.8047 7.96094 17.6875 9.25 17.6875C10.5 17.6875 13.2344 17.8047 14.4062 17.3359C15.1484 17.0234 15.7734 16.4375 16.0469 15.6562Z" fill="white" fill-opacity="0.9"/>
</svg>
