<svg width="18" height="18" viewBox="0 0 18 18" fill="none" xmlns="http://www.w3.org/2000/svg">
<path d="M4.01786 17.9598H0.28125V5.94643H4.01786V17.9598ZM2.12946 4.33929C0.964286 4.33929 0 3.33482 0 2.12946C0 0.964286 0.964286 0 2.12946 0C3.33482 0 4.29911 0.964286 4.29911 2.12946C4.29911 3.33482 3.33482 4.33929 2.12946 4.33929ZM17.9598 17.9598H14.2634V12.1339C14.2634 10.7277 14.2232 8.95982 12.2946 8.95982C10.3661 8.95982 10.0848 10.4464 10.0848 12.0134V17.9598H6.34821V5.94643H9.92411V7.59375H9.96429C10.4866 6.66964 11.692 5.66518 13.5 5.66518C17.2768 5.66518 18 8.15625 18 11.3705V17.9598H17.9598Z" fill="white" fill-opacity="0.9"/>
</svg>
