<svg width="15" height="18" viewBox="0 0 15 18" fill="none" xmlns="http://www.w3.org/2000/svg">
<path d="M12.5266 9.45479C12.5266 9.53457 12.4069 11.8883 15 13.125C14.5213 14.6011 12.8457 17.8723 10.891 17.8723C9.77394 17.8723 9.13564 17.1543 7.85904 17.1543C6.54255 17.1543 5.82447 17.8723 4.82713 17.8723C2.91223 17.9521 1.07713 14.3617 0.558511 12.8856C0.159574 11.7686 0 10.6915 0 9.65426C0 6.10372 2.35372 4.3883 4.58777 4.3484C5.66489 4.3484 7.02128 5.10638 7.61968 5.10638C8.17819 5.10638 9.73404 4.18883 11.1702 4.30851C12.6463 4.42819 13.7633 4.9867 14.5213 6.06383C13.2048 6.9016 12.5266 7.97872 12.5266 9.45479ZM10.2926 2.91223C9.49468 3.82979 8.53723 4.3484 7.5 4.26862C7.42021 3.19149 7.81915 2.19415 8.53723 1.39628C9.17553 0.678191 10.2926 0.0797872 11.25 0C11.25 0.43883 11.3697 1.63564 10.2926 2.91223Z" fill="white" fill-opacity="0.9"/>
</svg>
